<svg xmlns="http://www.w3.org/2000/svg" viewBox="0 0 64 64">
  <rect width="64" height="64" rx="14" fill="#241d18"/>
  <g transform="translate(32 32) scale(0.58) translate(-382.5 -90.5)">
    <path d="M379.86 108.31C379.02 107.1 376.73 105.39 377.66 103.89C379.17 101.45 382.4 96.86 380.85 94.71C380.57 94.32 379.04 94.5 378.63 94.81C375.93 96.88 364.88 104.28 362.27 102.64C361.83 102.37 361.29 100.83 361.42 100.29C361.84 98.44 364.24 95.83 365.95 95.8C369.21 95.74 373.32 95.18 376.04 93.31C376.66 92.88 376.34 91.91 375.59 91.94C370.9 92.14 366.86 92.3 362.15 92.27C355.91 92.22 346.21 95.75 337.39 91.44C336.8 91.15 336.86 90.27 337.49 90.06C349.59 85.86 351.64 88.21 360.15 89.27C365.43 89.93 370.37 89.68 375.81 89.58C376.51 89.57 376.8 88.68 376.25 88.24C365.97 80.1 365.96 89.44 361.96 83.58C361.29 82.6 360.72 79.62 361.79 78.92C361.89 78.86 362.01 78.84 362.12 78.83C371.37 78.27 373.93 84.44 380.45 87.95C381.1 88.3 381.72 85.79 381.28 85.08C380.01 83 378.32 79.9 377.41 77.24C377.34 77.05 377.36 76.84 377.45 76.65C378.79 73.96 380.39 71.6 382.25 69.11C382.55 68.71 383.15 68.72 383.46 69.11C390.42 78.36 383.23 82.82 384.96 87.37C385.08 87.69 386.17 87.22 386.44 86.98C392.39 81.87 395.16 78.77 403.06 78.86C403.5 78.86 403.83 79.25 403.79 79.69C402.97 88.53 394.36 82.65 388.59 88.26C388.11 88.72 388.43 89.54 389.09 89.55L399.74 89.8C409.78 90.03 406.2 86.23 417.46 87.95C420.8 88.46 424.23 89.05 427.5 89.97C428.06 90.13 428.22 90.85 427.8 91.24C424.79 94.09 420.81 92.02 418.02 92.79C413.45 94.04 410.54 93.94 405.89 92.87C400.75 91.69 395.05 91.96 389.15 91.95C388.47 91.95 388.13 92.79 388.63 93.25C391.4 95.78 395.36 95.59 399.09 95.64C402.58 95.69 406.17 100.58 404.24 102.68C402.14 104.97 393.61 100.13 390.8 98C389.13 96.74 387.76 95.77 386.03 94.63C385.55 94.31 384.89 94.63 384.86 95.22C384.7 98.73 385.84 100.96 387.19 104.29C387.27 104.49 387.26 104.72 387.16 104.92L383.63 111.83C383.37 112.33 382.67 112.38 382.35 111.92L379.83 108.28L379.86 108.31Z" fill="#B7A47A"/>
  </g>
</svg>
